<svg xmlns="http://www.w3.org/2000/svg" version="1.1" viewBox="-5.0 -10.0 110.0 135.0">
 <path d="m80.047 20.438s-0.015625 0-0.015625-0.03125c-0.0625-0.078125-0.125-0.15625-0.20312-0.23438s-0.15625-0.14062-0.23438-0.20312c-0.015625 0-0.03125 0-0.03125-0.015625-7.5938-7.5-18.062-12.141-29.562-12.141s-21.969 4.6406-29.562 12.141c0 0.015625-0.015625 0.015625-0.03125 0.015625-0.078125 0.0625-0.15625 0.125-0.23438 0.20312s-0.14062 0.15625-0.20312 0.23438c0 0.015625 0 0.03125-0.015625 0.03125-7.5 7.5938-12.141 18.062-12.141 29.562s4.6406 21.969 12.141 29.562c0.015625 0 0.015625 0.015625 0.015625 0.03125 0.0625 0.078125 0.125 0.15625 0.20312 0.23438s0.15625 0.14062 0.23438 0.20312c0.015625 0 0.03125 0.015625 0.03125 0.015625 7.5938 7.5 18.062 12.141 29.562 12.141s21.969-4.6406 29.562-12.141c0 0 0.015625-0.015625 0.03125-0.015625 0.078125-0.0625 0.15625-0.125 0.23438-0.20312s0.14062-0.15625 0.20312-0.23438c0-0.015625 0-0.03125 0.015625-0.03125 7.5-7.5938 12.141-18.062 12.141-29.562s-4.6406-21.969-12.141-29.562zm1.1562 31.125c-0.35938 7.4531-3.3438 14.219-8.0312 19.406l5.5156 5.5156c-0.70312 0.76562-1.4375 1.5-2.2031 2.2031l-5.5156-5.5156c-5.1875 4.6875-11.953 7.6719-19.406 8.0312v7.8281c-0.51562 0.015625-1.0469 0.03125-1.5625 0.03125s-1.0469-0.015625-1.5625-0.03125v-7.8281c-7.4531-0.35938-14.219-3.3438-19.406-8.0312l-5.5156 5.5156c-0.76562-0.70312-1.5-1.4375-2.2031-2.2031l5.5156-5.5156c-4.6875-5.1875-7.6719-11.953-8.0312-19.406h-7.8281c-0.015625-0.51562-0.03125-1.0469-0.03125-1.5625s0.015625-1.0469 0.03125-1.5625h7.8281c0.35938-7.4531 3.3438-14.219 8.0312-19.406l-5.5156-5.5156c0.70312-0.76562 1.4375-1.5 2.2031-2.2031l5.5156 5.5156c5.1875-4.6875 11.953-7.6719 19.406-8.0312v-7.8281c0.51562 0 1.0469-0.03125 1.5625-0.03125s1.0469 0.015625 1.5625 0.03125v7.8281c7.4531 0.35938 14.219 3.3438 19.406 8.0312l5.5156-5.5156c0.76562 0.70312 1.5 1.4375 2.2031 2.2031l-5.5156 5.5156c4.6875 5.1875 7.6719 11.953 8.0312 19.406h7.8281c0.015625 0.51562 0.03125 1.0469 0.03125 1.5625s-0.015625 1.0469-0.03125 1.5625z"/>
 <path d="m50 21.875c-15.5 0-28.125 12.609-28.125 28.125s12.625 28.125 28.125 28.125 28.125-12.609 28.125-28.125-12.625-28.125-28.125-28.125zm12.672 33.469c-1.8125 2.75-5.0625 3.5156-7.3594 3.6875 0.29688 0.92188 0.64062 1.8281 1.0156 2.7188 0.45312 1.0469 0.96875 2.0938 1.5469 3.0938 0.28125 0.48438 0.28125 1.0781 0 1.5625s-0.79688 0.78125-1.3594 0.78125h-13.031c-0.5625 0-1.0781-0.29688-1.3594-0.78125s-0.28125-1.0781 0-1.5625c0.57812-1 1.0938-2.0469 1.5469-3.0938 0.375-0.89062 0.71875-1.7969 1.0156-2.7188-2.2344-0.15625-5.5469-0.90625-7.375-3.7031-0.8125-1.2344-1.2031-2.6562-1.2031-4.3125 0-8.7969 12.469-17.562 13-17.922 0.53125-0.375 1.25-0.375 1.7812 0 0.53125 0.35938 13 9.125 13 17.922 0 0.625 0 2.4844-1.2188 4.3281z"/>
 <path d="m50 36.312c-3.6719 2.7656-10.766 9.25-10.766 14.703 0 0.65625 0.078125 1.6406 0.70312 2.6094 1.7656 2.7188 6.4531 2.3125 6.6562 2.2969 0.51562-0.046875 1 0.15625 1.3281 0.53125 0.32812 0.39062 0.45312 0.90625 0.34375 1.3906-0.4375 1.75-1.0156 3.4844-1.7188 5.1406-0.15625 0.35938-0.3125 0.71875-0.48438 1.0781h7.875c-0.17188-0.35938-0.32812-0.71875-0.48438-1.0781-0.70312-1.6562-1.2812-3.3906-1.7188-5.1406-0.10938-0.48438 0.015625-1 0.32812-1.375 0.32812-0.375 0.8125-0.57812 1.3125-0.54688s5 0.26562 6.7031-2.2969c0.6875-1.0625 0.6875-2.2188 0.6875-2.6094 0-5.4531-7.0938-11.938-10.766-14.703z"/>
</svg>
